<svg id="Capa_1" data-name="Capa 1" xmlns="http://www.w3.org/2000/svg" viewBox="0 0 733.33 733.33"><defs><style>.cls-1{fill:#f1f1f1;fill-rule:evenodd;}</style></defs><path class="cls-1" d="M666.67,33.33a100,100,0,0,1,100,100V666.67a100,100,0,0,1-100,100H133.33a100,100,0,0,1-100-100V133.33a100,100,0,0,1,100-100Zm0,66.67A33.33,33.33,0,0,1,700,133.33V666.67A33.33,33.33,0,0,1,666.67,700H500V466.66h69.21a33.34,33.34,0,0,0,31.62-22.79l14.77-44.3a25,25,0,0,0-23.72-32.91H500V300c0-16.67,16.67-33.34,33.33-33.34H600a33.33,33.33,0,0,0,33.33-33.33V210.46c0-10.76-6.87-20.42-17.29-23.16a362.55,362.55,0,0,0-82.71-11.54C450,175.76,400,233.33,400,283.33v83.33H333.33A33.34,33.34,0,0,0,300,400v33.33a33.33,33.33,0,0,0,33.33,33.33H400V700H133.33A33.33,33.33,0,0,1,100,666.67V133.33A33.33,33.33,0,0,1,133.33,100Z" transform="translate(-33.33 -33.33)"/></svg>