<svg id="Capa_1" data-name="Capa 1" xmlns="http://www.w3.org/2000/svg" viewBox="0 0 733.34 733.34"><defs><style>.cls-1{fill:#3bc784;fill-rule:evenodd;}</style></defs><path class="cls-1" d="M633.34,0a100,100,0,0,1,100,100V633.34a100,100,0,0,1-100,100H100a100,100,0,0,1-100-100V100A100,100,0,0,1,100,0Zm0,66.67A33.33,33.33,0,0,1,666.67,100h0V633.34a33.33,33.33,0,0,1-33.33,33.33H466.67V433.33h69.21a33.33,33.33,0,0,0,31.62-22.79l14.77-44.3a25,25,0,0,0-23.72-32.91H466.67V266.67c0-16.67,16.67-33.34,33.33-33.34h66.67A33.33,33.33,0,0,0,600,200h0V177.13c0-10.76-6.87-20.42-17.29-23.16A362.64,362.64,0,0,0,500,142.43C416.67,142.43,366.67,200,366.67,250v83.33H300a33.34,33.34,0,0,0-33.33,33.34V400A33.33,33.33,0,0,0,300,433.33h66.67V666.67H100a33.33,33.33,0,0,1-33.33-33.33h0V100A33.33,33.33,0,0,1,100,66.67Z"/></svg>