<svg id="Capa_1" data-name="Capa 1" xmlns="http://www.w3.org/2000/svg" viewBox="0 0 666.67 533.33"><defs><style>.cls-1{fill:none;stroke:#f1f1f1;stroke-linecap:round;stroke-linejoin:round;stroke-width:66.67px;}</style></defs><path class="cls-1" d="M533.33,566.67H700M366.67,633.33h-160c-37.34,0-56,0-70.27-7.26a66.64,66.64,0,0,1-29.13-29.14C100,582.67,100,564,100,526.67V273.33c0-37.33,0-56,7.27-70.26a66.64,66.64,0,0,1,29.13-29.14c14.26-7.26,32.93-7.26,70.27-7.26H593.33c37.34,0,56,0,70.27,7.26a66.64,66.64,0,0,1,29.13,29.14C700,217.33,700,236,700,273.33v93.34m-13.11-91.26L518.33,387.78c-42.77,28.51-64.15,42.77-87.26,48.31a133.48,133.48,0,0,1-62.15,0c-23.11-5.54-44.49-19.8-87.26-48.31L104.92,270" transform="translate(-66.67 -133.33)"/></svg>