<svg id="Capa_1" data-name="Capa 1" xmlns="http://www.w3.org/2000/svg" viewBox="0 0 666.67 533.33"><defs><style>.cls-1{fill:none;stroke:#3bc784;stroke-linecap:round;stroke-linejoin:round;stroke-width:66.67px;}</style></defs><path class="cls-1" d="M466.67,433.33H633.33M300,500H140c-37.34,0-56,0-70.27-7.26A66.64,66.64,0,0,1,40.61,463.6c-7.28-14.27-7.28-32.93-7.28-70.27V140c0-37.33,0-56,7.27-70.26A66.75,66.75,0,0,1,69.73,40.59C84,33.33,102.66,33.33,140,33.33H526.67c37.34,0,56,0,70.27,7.26a66.75,66.75,0,0,1,29.13,29.14c7.26,14.27,7.26,32.94,7.26,70.26v93.34m-13.1-91.26L451.67,254.45C408.9,283,387.52,297.21,364.4,302.76a133.44,133.44,0,0,1-62.14,0c-23.12-5.55-44.49-19.8-87.27-48.31L38.25,136.67" transform="translate(0 0)"/></svg>