<svg id="Capa_1" data-name="Capa 1" xmlns="http://www.w3.org/2000/svg" viewBox="0 0 666.67 666.67"><defs><style>.cls-1{fill:none;stroke:#f1f1f1;stroke-linecap:round;stroke-linejoin:round;stroke-width:66.67px;}</style></defs><path class="cls-1" d="M100,183.33C100,468.68,331.32,700,616.67,700q19.3,0,38.27-1.4c14.51-1.06,21.76-1.59,28.36-5.39a35.35,35.35,0,0,0,13.39-14.41c3.31-6.86,3.31-14.86,3.31-30.87V554c0-13.46,0-20.19-2.22-25.95a33.25,33.25,0,0,0-9.25-13.22c-4.66-4.05-11-6.35-23.64-11L558,465c-14.72-5.35-22.08-8-29.06-7.57a33.31,33.31,0,0,0-17.11,6.07c-5.71,4-9.73,10.75-17.79,24.18l-27.37,45.62a403.32,403.32,0,0,1-200-200L312.29,306c13.42-8.06,20.14-12.08,24.18-17.79a33.31,33.31,0,0,0,6.07-17.11c.46-7-2.22-14.34-7.57-29.06L296.1,135.11c-4.6-12.65-6.9-19-11-23.64a33.25,33.25,0,0,0-13.22-9.25C266.17,100,259.44,100,246,100H152.07c-16,0-24,0-30.87,3.31a35.35,35.35,0,0,0-14.41,13.39c-3.8,6.6-4.33,13.85-5.39,28.36Q100,164,100,183.33Z" transform="translate(-66.67 -66.67)"/></svg>