<svg id="Capa_1" data-name="Capa 1" xmlns="http://www.w3.org/2000/svg" viewBox="0 0 666.67 666.67"><defs><style>.cls-1{fill:none;stroke:#3bc784;stroke-linecap:round;stroke-linejoin:round;stroke-width:66.67px;}</style></defs><path class="cls-1" d="M33.33,116.66C33.33,402,264.65,633.33,550,633.33q19.31,0,38.27-1.4c14.51-1.06,21.76-1.59,28.36-5.39A35.35,35.35,0,0,0,630,612.13c3.31-6.86,3.31-14.86,3.31-30.87V487.33c0-13.46,0-20.19-2.22-25.95a33.25,33.25,0,0,0-9.25-13.22c-4.66-4.05-11-6.35-23.64-11L491.33,398.33c-14.72-5.35-22.08-8-29.06-7.57a33.28,33.28,0,0,0-17.11,6.07c-5.71,4-9.73,10.75-17.79,24.18L400,466.63a403.36,403.36,0,0,1-200-200l45.62-27.3c13.42-8.06,20.14-12.08,24.18-17.79a33.28,33.28,0,0,0,6.07-17.11c.46-7-2.22-14.34-7.57-29.06L229.43,68.44c-4.6-12.65-6.9-19-11-23.64a33.25,33.25,0,0,0-13.22-9.25c-5.71-2.22-12.44-2.22-25.88-2.22H85.4c-16,0-24,0-30.87,3.31A35.35,35.35,0,0,0,40.12,50c-3.8,6.6-4.33,13.85-5.39,28.36Q33.33,97.34,33.33,116.66Z" transform="translate(0 0)"/></svg>